999
Plan interactif 1.2.0-alpha.4 — 22/09/2026
0
SECTION
2
ENTITIES
0
LWPOLYLINE
8
Parcelle_AE_101
90
6
70
1
10
-20.1350
20
-37.1270
10
-28.0180
20
-27.8320
10
0.0000
20
0.0000
10
11.3810
20
-3.5960
10
6.7980
20
-23.4590
10
0.6720
20
-26.5260
0
LWPOLYLINE
8
Terrasse
90
6
70
1
10
-2.6169
20
-2.5407
10
-0.8835
20
-6.9272
10
-3.5484
20
-7.9065
10
-4.7495
20
-10.1162
10
-7.5497
20
-11.5003
10
-10.9945
20
-10.8692
0
LWPOLYLINE
8
Chemin_Arri_re
90
11
70
0
10
-1.2699
20
-24.5718
10
4.1481
20
-22.1896
10
7.4923
20
-12.2185
10
6.2254
20
-6.1929
10
0.9824
20
-5.6935
10
0.2281
20
-7.1854
10
-2.9391
20
-8.4542
10
-4.2248
20
-10.4067
10
-6.6222
20
-11.8216
10
-10.1267
20
-13.3882
10
-10.6112
20
-15.9815
0
LWPOLYLINE
8
Maison
90
14
70
1
10
-2.7612
20
-8.7789
10
4.8971
20
-6.4527
10
6.6161
20
-12.1437
10
1.5483
20
-13.7046
10
2.1000
20
-15.4788
10
2.7479
20
-15.2613
10
3.9625
20
-19.4152
10
3.2511
20
-19.6301
10
3.5744
20
-20.8640
10
-5.4791
20
-23.5702
10
-5.6483
20
-22.9816
10
-6.2950
20
-23.0943
10
-9.2023
20
-13.3776
10
-2.0706
20
-11.1819
0
LWPOLYLINE
8
Dalle_beton
90
4
70
1
10
10.8273
20
-3.7884
10
5.5211
20
-2.2584
10
4.9290
20
-4.3133
10
10.2352
20
-5.8433
0
LWPOLYLINE
8
Abri_de_jardin
90
6
70
1
10
-0.7198
20
-4.1615
10
-0.9114
20
-2.5606
10
-1.6088
20
-1.6714
10
-0.2216
20
-0.2384
10
2.2325
20
-0.9906
10
2.9174
20
-3.0359
0
LWPOLYLINE
8
Chemin_ZigZag
90
7
70
0
10
-16.6217
20
-33.6337
10
-15.2210
20
-32.5356
10
-12.8710
20
-29.4885
10
-8.7737
20
-29.2598
10
-5.9115
20
-25.6456
10
-1.4999
20
-25.1945
10
-1.6262
20
-22.5007
0
CIRCLE
8
Spa
10
-3.4542
20
-5.6003
40
1.1045
0
LWPOLYLINE
8
Table
90
4
70
1
10
-15.8974
20
-17.1540
10
-18.0310
20
-19.2800
10
-15.1960
20
-22.1251
10
-13.0626
20
-19.9981
0
LWPOLYLINE
8
Parking
90
4
70
1
10
-20.4984
20
-36.6075
10
-15.9351
20
-34.5640
10
-18.3463
20
-31.2955
10
-22.9508
20
-33.6596
0
LWPOLYLINE
8
Chemin_Table
90
4
70
0
10
-14.1818
20
-18.8955
10
-11.9587
20
-16.7627
10
-9.7606
20
-15.4210
10
-8.7021
20
-15.0910
0
LWPOLYLINE
8
Chemin_Buandrie
90
3
70
0
10
-4.0707
20
-10.4528
10
-3.7545
20
-10.7555
10
-2.2268
20
-10.5190
0
CIRCLE
8
Ch_ne
10
-8.0470
20
-23.1381
40
0.5523
0
CIRCLE
8
Erable
10
-1.5740
20
-2.8996
40
0.4016
0
LWPOLYLINE
8
Abri_de_jardin_Chemin
90
2
70
0
10
0.1897
20
-3.8719
10
0.8601
20
-5.6148
0
CIRCLE
8
Arbre_Entr_e
10
-18.6895
20
-31.0399
40
0.3012
0
LWPOLYLINE
8
Coin_entrant_terrasse
90
2
70
0
10
-11.2016
20
-13.2821
10
-8.4731
20
-11.6016
0
LWPOLYLINE
8
Arriere_terrasse
90
2
70
0
10
2.3464
20
-4.9955
10
0.3388
20
-5.6158
0
LWPOLYLINE
8
Fenetre_cuisine
90
2
70
0
10
-4.7536
20
-11.9143
10
-5.2779
20
-10.4617
0
CIRCLE
8
Parasol_1
10
-7.1446
20
-10.2141
40
1.5062
0
CIRCLE
8
Parasol_2
10
-15.8043
20
-20.9108
40
1.5062
0
LWPOLYLINE
8
Entr_e
90
2
70
0
10
-20.4943
20
-35.5689
10
-17.7016
20
-30.1994
0
LWPOLYLINE
8
Robinet
90
2
70
0
10
-23.5533
20
-26.2936
10
-20.1353
20
-23.2897
0
LWPOLYLINE
8
Ch_ne
90
2
70
0
10
-7.3648
20
-26.1626
10
-9.1774
20
-25.2715
0
LWPOLYLINE
8
Plattebande_Rue
90
4
70
1
10
-23.2549
20
-33.2550
10
-20.7764
20
-32.0224
10
-26.0594
20
-25.9097
10
-27.8959
20
-27.7671
0
LWPOLYLINE
8
Platebande_Aline
90
4
70
1
10
-25.4710
20
-26.5696
10
-11.0042
20
-12.2577
10
-11.6876
20
-11.5471
10
-26.0788
20
-25.8921
0
LWPOLYLINE
8
Platebande_Joel
90
4
70
1
10
-15.6395
20
-34.8040
10
6.8523
20
-23.5209
10
6.4524
20
-22.5148
10
-16.1469
20
-33.9598
0
LWPOLYLINE
8
Platebande_Guitare_
90
4
70
1
10
5.9037
20
-21.9094
10
7.0870
20
-22.0812
10
10.6722
20
-6.3111
10
9.5278
20
-6.1849
0
LWPOLYLINE
8
Platebande_Cuisine_Petit_Salon
90
4
70
1
10
-7.0020
20
-23.2885
10
-6.4204
20
-23.1213
10
-8.6437
20
-15.3844
10
-9.2254
20
-15.5516
0
LWPOLYLINE
8
Plattebande_Cuisine
90
4
70
1
10
-9.4517
20
-14.9896
10
-8.8650
20
-14.8210
10
-9.2646
20
-13.4305
10
-9.8513
20
-13.5991
0
LWPOLYLINE
8
Platebande_PEtit_Salon_Entree
90
4
70
1
10
-5.2917
20
-24.1709
10
-1.8075
20
-23.1696
10
-1.9760
20
-22.5834
10
-5.4602
20
-23.5847
0
LWPOLYLINE
8
Platebande_Grand_Salon_Entree
90
4
70
1
10
-1.1631
20
-22.9534
10
3.7552
20
-21.4325
10
3.5437
20
-20.8885
10
-1.3318
20
-22.3662
0
LWPOLYLINE
8
Platebande_grand_Salon_Arriere
90
4
70
1
10
3.9357
20
-19.3753
10
4.5623
20
-19.1100
10
3.5663
20
-15.0512
10
2.8327
20
-15.2408
0
LWPOLYLINE
8
Platebande_Angle_Grand_Salon
90
4
70
1
10
3.7783
20
-21.2735
10
4.4886
20
-20.5582
10
4.4895
20
-19.3013
10
3.2859
20
-19.7159
0
LWPOLYLINE
8
Platebande_Grand_Salon_Clim
90
4
70
1
10
2.1068
20
-15.4640
10
3.5394
20
-15.0262
10
3.1180
20
-13.2389
10
1.5579
20
-13.7116
0
LINE
8
MESURES
10
-11.3819
20
-32.5608
11
-18.0310
21
-19.2800
0
LINE
8
MESURES
10
0.6720
20
-26.5260
11
-11.3819
21
-32.5608
0
LINE
8
MESURES
10
-8.8249
20
-31.2806
11
-15.8974
21
-17.1540
0
LINE
8
MESURES
10
0.6720
20
-26.5260
11
-8.8249
21
-31.2806
0
LINE
8
MESURES
10
7.6439
20
-23.0355
11
-2.6169
21
-2.5407
0
LINE
8
MESURES
10
0.6720
20
-26.5260
11
7.6439
21
-23.0355
0
LINE
8
MESURES
10
0.1131
20
-26.8058
11
-7.5497
21
-11.5003
0
LINE
8
MESURES
10
0.6720
20
-26.5260
11
0.1131
21
-26.8058
0
LINE
8
MESURES
10
2.9061
20
-25.4075
11
-4.7495
21
-10.1162
0
LINE
8
MESURES
10
0.6720
20
-26.5260
11
2.9061
21
-25.4075
0
LINE
8
MESURES
10
4.7511
20
-24.4838
11
-3.5484
21
-7.9065
0
LINE
8
MESURES
10
0.6720
20
-26.5260
11
4.7511
21
-24.4838
0
LINE
8
MESURES
10
7.2739
20
-23.2207
11
-0.8835
21
-6.9272
0
LINE
8
MESURES
10
0.6720
20
-26.5260
11
7.2739
21
-23.2207
0
ENDSEC
0
EOF
